# xmcd
#
# Track frame offsets:
#	150
#	26115
#	53842
#	80670
#	105935
#	142762
#	164495
#	211055
#
# Disc length: 2943 seconds
#
# Revision: 1
# Processed by: cddbd v1.5.1PL0 Copyright (c) Steve Scherf et al.
# Submitted via: CDex 1.50Beta5
#
DISCID=600b7d08
DTITLE=Sayoko - Undertone
DYEAR=1900
DGENRE=Pop
TTITLE0=LONELY MAN A LION
TTITLE1=ものがたり
TTITLE2=ナンバー
TTITLE3=水晶のビーズ
TTITLE4=エナジー
TTITLE5=夢の玉ゆら
TTITLE6=誕生歌
TTITLE7=まにまに
EXTD=
EXTT0=
EXTT1=
EXTT2=
EXTT3=
EXTT4=
EXTT5=
EXTT6=
EXTT7=
PLAYORDER=
